<svg xmlns="http://www.w3.org/2000/svg" viewBox="0 0 1666.16 725.05"><defs><style>.cls-1{fill:#ff9898;}.cls-2{fill:#a6b1e1;}.cls-3{fill:#d4ecdd;}.cls-4{font-size:276.27px;font-family:Montserrat-Bold, Montserrat;font-weight:700;letter-spacing:0.48em;}.cls-4,.cls-6{fill:#cf455c;}.cls-5{letter-spacing:0.47em;}</style></defs><title>ladenRecurso 4</title><g id="Capa_2" data-name="Capa 2"><g id="Capa_1-2" data-name="Capa 1"><circle class="cls-1" cx="87.43" cy="87.43" r="87.43"/><circle class="cls-2" cx="414.8" cy="87.43" r="87.43"/><circle class="cls-3" cx="740.94" cy="87.43" r="87.43"/><text class="cls-4" transform="translate(0 476.56)">L<tspan class="cls-5" x="298.37" y="0">ADEN</tspan></text><path class="cls-6" d="M85.83,620.87,48.93,723.64h-12L0,620.87H12.51l24.05,67.7c1,2.71,1.86,5.32,2.63,7.8s1.47,4.87,2.08,7.17,1.14,4.52,1.61,6.68q.7-3.24,1.62-6.72t2.11-7.24q1.19-3.75,2.67-7.91l23.9-67.48Z"/><path class="cls-6" d="M195.84,723.64H138.62V620.87h57.22v10.54H150.57v33.25h42.67v10.41H150.57v38h45.27Z"/><path class="cls-6" d="M337.7,723.64H323.92l-56-86.32h-.56c.14,2.29.31,4.91.49,7.84s.34,6,.46,9.35.18,6.66.18,10.08v59H257.35V620.87h13.71l55.81,86h.5c-.1-1.64-.21-4-.36-7s-.27-6.28-.38-9.77-.18-6.74-.18-9.74V620.87H337.7Z"/><path class="cls-6" d="M486.09,671.27q0,17.37-6.32,29a40.72,40.72,0,0,1-18.32,17.5q-12,5.88-29.06,5.87H404.48V620.87h31q15.67,0,27,5.73a40.25,40.25,0,0,1,17.47,16.94Q486.09,654.76,486.09,671.27Zm-12.58.42q0-13.85-4.6-22.84a29.54,29.54,0,0,0-13.5-13.4q-8.9-4.38-21.76-4.39H416.43v82.32H431q21.22,0,31.88-10.47T473.51,671.69Z"/><path class="cls-6" d="M604.89,723.64H547.67V620.87h57.22v10.54H559.62v33.25h42.67v10.41H559.62v38h45.27Z"/><path class="cls-6" d="M748,671.27q0,17.37-6.32,29a40.72,40.72,0,0,1-18.32,17.5q-12,5.88-29.07,5.87H666.4V620.87h31q15.68,0,27,5.73a40.25,40.25,0,0,1,17.47,16.94Q748,654.76,748,671.27Zm-12.58.42q0-13.85-4.61-22.84a29.52,29.52,0,0,0-13.49-13.4q-8.9-4.38-21.76-4.39H678.35v82.32H692.9q21.23,0,31.88-10.47T735.43,671.69Z"/><path class="cls-6" d="M898.73,672.12a72.48,72.48,0,0,1-3,21.61,46.93,46.93,0,0,1-9,16.73A39.53,39.53,0,0,1,872,721.25a51,51,0,0,1-20.38,3.8,52.83,52.83,0,0,1-20.85-3.8A38.67,38.67,0,0,1,816,710.43a46.89,46.89,0,0,1-8.79-16.8A75.69,75.69,0,0,1,804.31,672q0-15.75,5.21-27.63a40.25,40.25,0,0,1,15.78-18.49q10.58-6.61,26.54-6.61,15.25,0,25.69,6.54a41.26,41.26,0,0,1,15.82,18.38Q898.72,656,898.73,672.12Zm-81.83,0q0,13.07,3.72,22.63a30.68,30.68,0,0,0,11.43,14.76q7.69,5.21,19.58,5.21t19.57-5.21a30.38,30.38,0,0,0,11.29-14.76q3.64-9.56,3.65-22.63,0-19.9-8.33-31.11t-26-11.21q-12,0-19.69,5.13a30.49,30.49,0,0,0-11.49,14.58Q816.9,659,816.9,672.12Z"/><path class="cls-6" d="M988.07,620.87q12.64,0,20.91,3.13a24.21,24.21,0,0,1,12.34,9.52q4.08,6.4,4.08,16.31,0,8.16-3,13.6a25.28,25.28,0,0,1-7.73,8.83,39.57,39.57,0,0,1-10.19,5.2l28.19,46.18h-13.92l-25.17-42.88H972.25v42.88h-12V620.87Zm-.71,10.33H972.25v39.44h16.31q12.59,0,18.52-5.13t5.94-15.12q0-10.47-6.29-14.83T987.36,631.2Z"/></g></g></svg>